<mxfile host="app.diagrams.net" modified="2023-08-14T10:22:41.218Z" agent="Mozilla/5.0 (Macintosh; Intel Mac OS X 10_15_7) AppleWebKit/537.36 (KHTML, like Gecko) Chrome/115.0.0.0 Safari/537.36" etag="t5_5eBdVfoymCWveYfiZ" version="21.6.3" type="device">
  <diagram name="Page-1" id="xKHwgQZe-vKlWU3KrRYb">
    <mxGraphModel dx="1140" dy="734" grid="1" gridSize="10" guides="1" tooltips="1" connect="1" arrows="1" fold="1" page="1" pageScale="1" pageWidth="850" pageHeight="1100" math="0" shadow="0">
      <root>
        <mxCell id="0" />
        <mxCell id="1" parent="0" />
        <mxCell id="wwa8FdaM4NNuPBm3mwFZ-21" value="" style="rounded=0;whiteSpace=wrap;html=1;" vertex="1" parent="1">
          <mxGeometry x="20" y="10" width="900" height="310" as="geometry" />
        </mxCell>
        <mxCell id="wwa8FdaM4NNuPBm3mwFZ-1" value="@openscd/openscd-core" style="rounded=0;whiteSpace=wrap;html=1;fillColor=#dae8fc;strokeColor=#6c8ebf;" vertex="1" parent="1">
          <mxGeometry x="390" y="130" width="200" height="60" as="geometry" />
        </mxCell>
        <mxCell id="wwa8FdaM4NNuPBm3mwFZ-4" style="edgeStyle=orthogonalEdgeStyle;rounded=0;orthogonalLoop=1;jettySize=auto;html=1;entryX=0.5;entryY=1;entryDx=0;entryDy=0;" edge="1" parent="1" source="wwa8FdaM4NNuPBm3mwFZ-3" target="wwa8FdaM4NNuPBm3mwFZ-1">
          <mxGeometry relative="1" as="geometry" />
        </mxCell>
        <mxCell id="wwa8FdaM4NNuPBm3mwFZ-5" value="Depends on" style="edgeLabel;html=1;align=center;verticalAlign=middle;resizable=0;points=[];" vertex="1" connectable="0" parent="wwa8FdaM4NNuPBm3mwFZ-4">
          <mxGeometry x="-0.1476" y="1" relative="1" as="geometry">
            <mxPoint as="offset" />
          </mxGeometry>
        </mxCell>
        <mxCell id="wwa8FdaM4NNuPBm3mwFZ-3" value="@openscd/open-scd" style="rounded=0;whiteSpace=wrap;html=1;fillColor=#d5e8d4;strokeColor=#82b366;" vertex="1" parent="1">
          <mxGeometry x="390" y="250" width="200" height="60" as="geometry" />
        </mxCell>
        <mxCell id="wwa8FdaM4NNuPBm3mwFZ-7" style="edgeStyle=orthogonalEdgeStyle;rounded=0;orthogonalLoop=1;jettySize=auto;html=1;entryX=1;entryY=0.5;entryDx=0;entryDy=0;" edge="1" parent="1" source="wwa8FdaM4NNuPBm3mwFZ-6" target="wwa8FdaM4NNuPBm3mwFZ-1">
          <mxGeometry relative="1" as="geometry" />
        </mxCell>
        <mxCell id="wwa8FdaM4NNuPBm3mwFZ-8" value="Depends on" style="edgeLabel;html=1;align=center;verticalAlign=middle;resizable=0;points=[];" vertex="1" connectable="0" parent="wwa8FdaM4NNuPBm3mwFZ-7">
          <mxGeometry x="0.0667" y="-1" relative="1" as="geometry">
            <mxPoint as="offset" />
          </mxGeometry>
        </mxCell>
        <mxCell id="wwa8FdaM4NNuPBm3mwFZ-9" style="edgeStyle=orthogonalEdgeStyle;rounded=0;orthogonalLoop=1;jettySize=auto;html=1;entryX=1;entryY=0.5;entryDx=0;entryDy=0;dashed=1;" edge="1" parent="1" source="wwa8FdaM4NNuPBm3mwFZ-6" target="wwa8FdaM4NNuPBm3mwFZ-3">
          <mxGeometry relative="1" as="geometry">
            <Array as="points">
              <mxPoint x="810" y="280" />
            </Array>
          </mxGeometry>
        </mxCell>
        <mxCell id="wwa8FdaM4NNuPBm3mwFZ-10" value="Test Dependency" style="edgeLabel;html=1;align=center;verticalAlign=middle;resizable=0;points=[];" vertex="1" connectable="0" parent="wwa8FdaM4NNuPBm3mwFZ-9">
          <mxGeometry x="-0.0366" y="-1" relative="1" as="geometry">
            <mxPoint x="-31" y="1" as="offset" />
          </mxGeometry>
        </mxCell>
        <mxCell id="wwa8FdaM4NNuPBm3mwFZ-6" value="@openscd/oscd-open" style="rounded=0;whiteSpace=wrap;html=1;fillColor=#ffe6cc;strokeColor=#d79b00;" vertex="1" parent="1">
          <mxGeometry x="710" y="130" width="200" height="60" as="geometry" />
        </mxCell>
        <mxCell id="wwa8FdaM4NNuPBm3mwFZ-12" style="edgeStyle=orthogonalEdgeStyle;rounded=0;orthogonalLoop=1;jettySize=auto;html=1;entryX=0;entryY=0.5;entryDx=0;entryDy=0;" edge="1" parent="1" source="wwa8FdaM4NNuPBm3mwFZ-11" target="wwa8FdaM4NNuPBm3mwFZ-1">
          <mxGeometry relative="1" as="geometry">
            <Array as="points">
              <mxPoint x="210" y="160" />
            </Array>
          </mxGeometry>
        </mxCell>
        <mxCell id="wwa8FdaM4NNuPBm3mwFZ-13" value="Depends on" style="edgeLabel;html=1;align=center;verticalAlign=middle;resizable=0;points=[];" vertex="1" connectable="0" parent="wwa8FdaM4NNuPBm3mwFZ-12">
          <mxGeometry x="-0.0265" relative="1" as="geometry">
            <mxPoint x="39" as="offset" />
          </mxGeometry>
        </mxCell>
        <mxCell id="wwa8FdaM4NNuPBm3mwFZ-11" value="@com-pas/compas-ui" style="rounded=0;whiteSpace=wrap;html=1;fillColor=#d5e8d4;strokeColor=#82b366;" vertex="1" parent="1">
          <mxGeometry x="110" y="250" width="200" height="60" as="geometry" />
        </mxCell>
        <mxCell id="wwa8FdaM4NNuPBm3mwFZ-15" style="edgeStyle=orthogonalEdgeStyle;rounded=0;orthogonalLoop=1;jettySize=auto;html=1;entryX=0.5;entryY=0;entryDx=0;entryDy=0;" edge="1" parent="1" source="wwa8FdaM4NNuPBm3mwFZ-14" target="wwa8FdaM4NNuPBm3mwFZ-1">
          <mxGeometry relative="1" as="geometry" />
        </mxCell>
        <mxCell id="wwa8FdaM4NNuPBm3mwFZ-16" value="Depends on" style="edgeLabel;html=1;align=center;verticalAlign=middle;resizable=0;points=[];" vertex="1" connectable="0" parent="wwa8FdaM4NNuPBm3mwFZ-15">
          <mxGeometry x="-0.0306" y="1" relative="1" as="geometry">
            <mxPoint x="16" y="-1" as="offset" />
          </mxGeometry>
        </mxCell>
        <mxCell id="wwa8FdaM4NNuPBm3mwFZ-14" value="@openscd/oscd-save" style="rounded=0;whiteSpace=wrap;html=1;fillColor=#ffe6cc;strokeColor=#d79b00;" vertex="1" parent="1">
          <mxGeometry x="710" y="40" width="200" height="60" as="geometry" />
        </mxCell>
        <mxCell id="wwa8FdaM4NNuPBm3mwFZ-18" style="edgeStyle=orthogonalEdgeStyle;rounded=0;orthogonalLoop=1;jettySize=auto;html=1;entryX=0.5;entryY=0;entryDx=0;entryDy=0;" edge="1" parent="1" source="wwa8FdaM4NNuPBm3mwFZ-17" target="wwa8FdaM4NNuPBm3mwFZ-1">
          <mxGeometry relative="1" as="geometry" />
        </mxCell>
        <mxCell id="wwa8FdaM4NNuPBm3mwFZ-24" value="Depends on" style="edgeLabel;html=1;align=center;verticalAlign=middle;resizable=0;points=[];" vertex="1" connectable="0" parent="wwa8FdaM4NNuPBm3mwFZ-18">
          <mxGeometry x="-0.4249" y="1" relative="1" as="geometry">
            <mxPoint x="15" y="1" as="offset" />
          </mxGeometry>
        </mxCell>
        <mxCell id="wwa8FdaM4NNuPBm3mwFZ-19" style="edgeStyle=orthogonalEdgeStyle;rounded=0;orthogonalLoop=1;jettySize=auto;html=1;entryX=0;entryY=0.5;entryDx=0;entryDy=0;dashed=1;" edge="1" parent="1" source="wwa8FdaM4NNuPBm3mwFZ-17" target="wwa8FdaM4NNuPBm3mwFZ-11">
          <mxGeometry relative="1" as="geometry">
            <Array as="points">
              <mxPoint x="80" y="50" />
              <mxPoint x="80" y="280" />
            </Array>
          </mxGeometry>
        </mxCell>
        <mxCell id="wwa8FdaM4NNuPBm3mwFZ-20" value="Test Dependency" style="edgeLabel;html=1;align=center;verticalAlign=middle;resizable=0;points=[];" vertex="1" connectable="0" parent="wwa8FdaM4NNuPBm3mwFZ-19">
          <mxGeometry x="-0.0424" y="-6" relative="1" as="geometry">
            <mxPoint as="offset" />
          </mxGeometry>
        </mxCell>
        <mxCell id="wwa8FdaM4NNuPBm3mwFZ-17" value="@com-pas/cmp-open" style="rounded=0;whiteSpace=wrap;html=1;fillColor=#e1d5e7;strokeColor=#9673a6;" vertex="1" parent="1">
          <mxGeometry x="110" y="20" width="200" height="60" as="geometry" />
        </mxCell>
      </root>
    </mxGraphModel>
  </diagram>
</mxfile>
